<svg width="45" height="45" viewBox="0 0 45 45" fill="none" xmlns="http://www.w3.org/2000/svg">
<g clip-path="url(#clip0_60_11362)">
<path d="M44.5591 29.7283C44.3268 29.404 44.0122 29.1476 43.6477 28.9856C43.2831 28.8236 42.882 28.7618 42.4856 28.8067C42.2756 26.8517 41.7602 22.7026 41.0586 21.6053C40.7935 21.1903 40.0608 20.5206 37.099 19.4486C37.4324 18.2975 37.6281 17.1109 37.682 15.9137H37.7106V15.2105C37.7106 6.82321 30.8867 0 22.4999 0H21.7968V0.0355957C13.7376 0.406758 7.28945 7.06052 7.28945 15.2105V15.9137H11.6867V15.2105C11.6906 14.5737 11.9462 13.9642 12.3979 13.5152C12.8496 13.0662 13.4606 12.8142 14.0975 12.8142C14.7344 12.8142 15.3454 13.0662 15.7971 13.5152C16.2488 13.9642 16.5045 14.5737 16.5083 15.2105V15.9137H21.7968V21.2016H22.4999C23.1368 21.2054 23.7462 21.4611 24.1952 21.9128C24.6442 22.3645 24.8962 22.9755 24.8962 23.6124C24.8962 24.2493 24.6442 24.8603 24.1952 25.312C23.7462 25.7637 23.1368 26.0193 22.4999 26.0232H21.7968V30.4204H22.4999C25.9385 30.42 29.2749 29.2506 31.9613 27.1042C32.7125 30.7396 34.5612 32.6852 35.7194 33.5817C35.5177 33.9223 35.4079 34.3095 35.4008 34.7053C35.3937 35.1012 35.4895 35.492 35.6789 35.8397C35.8683 36.1874 36.1447 36.4799 36.481 36.6886C36.8174 36.8974 37.2022 37.0152 37.5978 37.0305C37.6295 37.0319 37.6594 37.0326 37.6913 37.0326C38.1764 37.0323 38.649 36.8782 39.0412 36.5925L44.0595 32.9302C44.5496 32.5713 44.8775 32.0327 44.9712 31.4325C45.0648 30.8323 44.9166 30.2194 44.5591 29.7283ZM21.7968 14.5074H17.8505C17.6862 13.6323 17.2213 12.842 16.536 12.2735C15.8508 11.7049 14.9884 11.3937 14.0979 11.3937C13.2075 11.3937 12.3451 11.7049 11.6599 12.2735C10.9746 12.842 10.5097 13.6323 10.3454 14.5074H8.71355C9.06968 7.45576 14.7456 1.79851 21.7968 1.44079V3.05692C20.9218 3.22105 20.1317 3.68585 19.5632 4.37091C18.9947 5.05596 18.6836 5.91818 18.6836 6.8084C18.6836 7.69862 18.9947 8.56084 19.5632 9.2459C20.1317 9.93095 20.9218 10.3958 21.7968 10.5599V14.5074ZM20.0898 6.80818C20.0904 6.16917 20.3446 5.55653 20.7964 5.10467C21.2482 4.65282 21.8609 4.39866 22.4999 4.39796H23.203V1.44185C23.3279 1.44817 23.4537 1.45125 23.5777 1.46083C23.785 1.477 23.9914 1.49599 24.196 1.52156C24.439 1.55153 24.6794 1.58959 24.9186 1.63204C25.1197 1.6679 25.3202 1.70446 25.5181 1.74885C25.7541 1.80158 25.9865 1.86442 26.2179 1.92929C26.4113 1.98343 26.6047 2.0366 26.7941 2.09892C27.0227 2.17397 27.2463 2.26002 27.4695 2.34659C27.6529 2.4177 27.8376 2.48607 28.0171 2.56474C28.2401 2.66229 28.4566 2.77207 28.6727 2.88114C28.8426 2.96657 29.0149 3.04752 29.1807 3.13963C29.3998 3.26127 29.6101 3.39627 29.8218 3.52942C29.9747 3.62566 30.1318 3.71602 30.2807 3.81806C30.5025 3.97002 30.7131 4.13622 30.9253 4.3004C31.0526 4.39893 31.1855 4.49033 31.3093 4.59316C31.5957 4.83126 31.8692 5.08403 32.1354 5.34419C32.2141 5.42112 32.2918 5.49885 32.3685 5.57736C32.6278 5.84297 32.88 6.11552 33.1174 6.40116C33.2211 6.52605 33.3134 6.66026 33.4129 6.78885C33.5762 6.99978 33.7415 7.20958 33.8926 7.43045C33.9954 7.58039 34.0865 7.73859 34.1835 7.89284C34.3153 8.1029 34.4496 8.31173 34.5702 8.52926C34.6633 8.69669 34.7451 8.8708 34.8313 9.04236C34.9394 9.25761 35.0484 9.47215 35.1454 9.69355C35.2245 9.87346 35.2926 10.0585 35.3638 10.2422C35.4504 10.4652 35.5363 10.6885 35.6113 10.9169C35.6737 11.1067 35.7269 11.3004 35.781 11.4939C35.8459 11.725 35.9084 11.957 35.9612 12.1929C36.0057 12.3909 36.0423 12.5916 36.0781 12.7927C36.1207 13.0318 36.1587 13.2721 36.1887 13.5153C36.2139 13.7198 36.2332 13.926 36.2493 14.1333C36.2591 14.2574 36.262 14.383 36.2683 14.5079H33.3133V15.2111C33.3094 15.8479 33.0537 16.4574 32.602 16.9064C32.1503 17.3553 31.5393 17.6073 30.9025 17.6073C30.2656 17.6073 29.6546 17.3553 29.2029 16.9064C28.7512 16.4574 28.4955 15.8479 28.4917 15.2111V14.5079H23.203V9.21894H22.4999C21.8608 9.21817 21.2481 8.9639 20.7963 8.51192C20.3445 8.05994 20.0904 7.44718 20.0898 6.8081L20.0898 6.80818ZM23.203 28.9963V27.3642C24.078 27.2 24.868 26.7351 25.4365 26.05C26.005 25.3649 26.3161 24.5026 26.3161 23.6124C26.3161 22.7221 26.005 21.8599 25.4365 21.1748C24.868 20.4897 24.078 20.0248 23.203 19.8606V15.9137H27.1498C27.3142 16.7887 27.7792 17.5788 28.4644 18.1473C29.1496 18.7159 30.012 19.027 30.9024 19.027C31.7927 19.027 32.6551 18.7159 33.3403 18.1473C34.0256 17.5788 34.4906 16.7887 34.6549 15.9137H36.2756C36.2181 17.0831 36.0114 18.2403 35.6604 19.3573L35.5589 19.6545C35.2549 20.5409 34.8586 21.393 34.3765 22.1965L32.1201 19.9409C31.2578 19.0743 29.7444 19.0757 28.8819 19.9395C28.669 20.1521 28.5001 20.4046 28.3849 20.6826C28.2697 20.9605 28.2104 21.2584 28.2104 21.5593C28.2104 21.8602 28.2697 22.1581 28.3849 22.4361C28.5001 22.714 28.669 22.9665 28.8819 23.1791L30.921 25.2182C31.0872 25.3879 31.2386 25.5716 31.3733 25.7672C29.0766 27.7086 26.2064 28.843 23.203 28.9963ZM33.3298 26.7803C33.2489 26.4091 33.1233 26.049 32.9559 25.708C32.9445 25.678 32.9311 25.6488 32.9156 25.6206C32.6597 25.104 32.3219 24.632 31.9153 24.2232L29.8762 22.1841C29.7941 22.1021 29.729 22.0046 29.6845 21.8974C29.6401 21.7902 29.6172 21.6752 29.6171 21.5592C29.6171 21.4431 29.6399 21.3281 29.6843 21.2209C29.7287 21.1136 29.7938 21.0162 29.8759 20.9341C30.0416 20.7682 30.2664 20.675 30.5008 20.675C30.6169 20.6749 30.7318 20.6978 30.8391 20.7422C30.9464 20.7866 31.0438 20.8516 31.1259 20.9337L34.6058 24.4123L35.0823 23.7071C35.707 22.7882 36.231 21.8048 36.6452 20.7737C39.4384 21.7845 39.8367 22.3036 39.8752 22.3626C40.3292 23.0731 40.8666 26.7706 41.1333 29.3943L36.7484 32.595C35.8318 31.9405 34.0379 30.2658 33.3298 26.7803ZM43.2298 31.7944L38.2118 35.457C38.0513 35.5754 37.8549 35.635 37.6557 35.6259C37.5051 35.621 37.3584 35.5773 37.2297 35.4991C37.101 35.4209 36.9946 35.3109 36.9208 35.1796C36.847 35.0483 36.8082 34.9002 36.8084 34.7495C36.8085 34.5989 36.8474 34.4509 36.9214 34.3197L37.1035 34.405L42.161 30.3856L42.1904 30.3642C42.34 30.254 42.5209 30.1946 42.7067 30.1946C42.7523 30.1946 42.7977 30.198 42.8427 30.2048C43.016 30.2313 43.1775 30.3087 43.3067 30.4271C43.4359 30.5455 43.5271 30.6997 43.5685 30.87C43.61 31.0403 43.6 31.2191 43.5397 31.3837C43.4794 31.5482 43.3716 31.6912 43.23 31.7944H43.2298ZM19.4801 27.7542L20.8452 22.5783L15.6679 21.2132C15.7309 20.3256 15.4825 19.4438 14.9654 18.7196C14.4482 17.9954 13.6948 17.4742 12.8347 17.2458C11.9736 17.0185 11.0601 17.0994 10.2523 17.4745C9.44449 17.8495 8.79317 18.4951 8.41103 19.2996L5.4579 18.5209L5.27799 19.2007C4.47718 22.2102 4.62999 25.3941 5.71533 28.3131C4.7749 28.7634 4.20238 29.1639 3.94135 29.5725C3.23972 30.6687 2.72424 34.8195 2.51427 36.7748C2.32528 36.7536 2.1344 36.7559 1.94597 36.7815C1.4972 36.8498 1.07882 37.0498 0.743931 37.3563C0.409039 37.6627 0.172727 38.0617 0.0649827 38.5027C-0.0427615 38.9436 -0.017081 39.4066 0.138765 39.833C0.294612 40.2593 0.573599 40.6297 0.940324 40.8973L5.95694 44.5585C6.34946 44.845 6.8227 44.9995 7.30861 45C7.34026 45 7.37181 44.9993 7.40204 44.998C7.79924 44.9822 8.18547 44.8632 8.52271 44.6528C8.85994 44.4423 9.13656 44.1477 9.32531 43.7979C9.51406 43.448 9.60844 43.0551 9.59915 42.6577C9.58987 42.2603 9.47724 41.8721 9.27236 41.5315C10.2112 40.7844 11.6134 39.3342 12.483 36.8564L12.653 36.3998C13.743 37.0011 14.9026 37.4666 16.1058 37.7861L16.7869 37.9653L17.5655 35.0114C18.333 35.0661 19.0991 34.8884 19.7642 34.5016C20.3644 34.1517 20.8577 33.6446 21.191 33.0351C21.5243 32.4255 21.685 31.7366 21.6558 31.0425C21.6265 30.3483 21.4085 29.6754 21.0251 29.096C20.6417 28.5166 20.1074 28.0529 19.48 27.7546L19.4801 27.7542ZM8.02686 43.2285C7.94775 43.3366 7.84532 43.4255 7.72718 43.4886C7.60904 43.5517 7.47821 43.5874 7.34439 43.593C7.14456 43.6056 6.94697 43.5453 6.78813 43.4234L1.77019 39.7617C1.61949 39.6513 1.50755 39.4961 1.45036 39.3183C1.39316 39.1404 1.39364 38.9491 1.45172 38.7715C1.5098 38.594 1.62252 38.4393 1.77376 38.3297C1.925 38.22 2.10703 38.161 2.29384 38.161C2.48034 38.1613 2.66182 38.2215 2.81152 38.3327L2.84483 38.357L7.90469 42.3791L8.08047 42.2923C8.16083 42.4375 8.19844 42.6024 8.18895 42.7681C8.17947 42.9338 8.12327 43.0934 8.02686 43.2285ZM11.1936 36.3037C10.3538 38.6865 8.99198 39.9784 8.23472 40.5502L3.86708 37.3623C4.13365 34.7386 4.67137 31.0409 5.12673 30.3296C5.14598 30.2994 5.32009 30.0591 6.26386 29.6024C7.01348 31.1452 8.01504 32.5522 9.22736 33.7656L9.9978 34.547L11.8147 29.7288C11.8516 29.6231 11.9091 29.5258 11.9837 29.4423C12.0583 29.3588 12.1486 29.2908 12.2494 29.2423C12.3503 29.1937 12.4598 29.1654 12.5715 29.1591C12.6833 29.1529 12.7952 29.1686 12.9009 29.2056L12.9023 29.2063C13.0084 29.2432 13.106 29.3007 13.1897 29.3755C13.2734 29.4504 13.3414 29.5411 13.3899 29.6423C13.4383 29.7418 13.4666 29.8498 13.4732 29.9602C13.4798 30.0706 13.4645 30.1812 13.4283 30.2857L11.1936 36.3037ZM20.1736 31.8178C20.0102 32.4361 19.608 32.9643 19.0554 33.2862C18.5027 33.608 17.8449 33.6973 17.2265 33.5344L16.5467 33.3552L15.79 36.2302C14.8727 35.931 13.9894 35.536 13.1548 35.0519L14.7519 30.7617C14.9527 30.197 14.9209 29.5756 14.6636 29.0344C14.4062 28.4931 13.9444 28.0762 13.3797 27.8754C12.8149 27.6746 12.1936 27.7064 11.6523 27.9637C11.111 28.2211 10.6941 28.6829 10.4933 29.2476L9.4716 31.9558C8.5561 30.8915 7.81116 29.6916 7.26335 28.399L7.1795 28.1983C6.15609 25.6765 5.91075 22.9061 6.47506 20.2437L9.35075 21.0017L9.52926 20.322C9.60804 20.0138 9.74703 19.7242 9.93823 19.47C10.1294 19.2158 10.369 19.0019 10.6433 18.8407C10.9175 18.6795 11.2209 18.5741 11.5361 18.5307C11.8512 18.4873 12.1718 18.5067 12.4794 18.5878C12.787 18.6689 13.0755 18.81 13.3283 19.0031C13.5811 19.1962 13.7932 19.4374 13.9524 19.7128C14.1116 19.9882 14.2146 20.2924 14.2557 20.6079C14.2967 20.9233 14.275 21.2438 14.1916 21.5508L14.0117 22.2305L19.1258 23.5791L17.7773 28.6926L18.4569 28.8721C19.0747 29.0358 19.6024 29.4379 19.9242 29.9901C20.246 30.5423 20.3357 31.1996 20.1736 31.8178Z" fill="#F14F44"/>
</g>
<defs>
<clipPath id="clip0_60_11362">
<rect width="45" height="45" fill="white"/>
</clipPath>
</defs>
</svg>
